<svg width="132" height="127" viewBox="0 0 132 127" fill="none" xmlns="http://www.w3.org/2000/svg">
<path d="M65.9989 0C29.5494 0 0.000450134 28.4305 0.000450134 63.4994C0.000450134 98.5674 29.5494 127 65.9989 127C102.448 127 132 98.5674 132 63.4994C132 28.4305 102.448 0 65.9989 0ZM66.0002 22.304L105.056 45.7357H26.9441L66.0002 22.304ZM105.543 83.1532H105.539C105.539 86.9116 102.373 89.9571 98.4672 89.9571H33.5332C29.6268 89.9571 26.4614 86.9112 26.4614 83.1532V47.2267C26.4614 46.8292 26.5037 46.4427 26.5723 46.0629L63.8882 68.4503C63.9339 68.4778 63.9828 68.4964 64.0299 68.5218C64.0791 68.5481 64.1293 68.5735 64.1795 68.5976C64.443 68.7284 64.7145 68.8338 64.9921 68.9028C65.0207 68.9105 65.0494 68.9139 65.078 68.9202C65.3824 68.9892 65.6909 69.0324 65.9989 69.0324H66.0011C66.0033 69.0324 66.0055 69.0324 66.0055 69.0324C66.3135 69.0324 66.6219 68.9905 66.9264 68.9202C66.955 68.9134 66.9836 68.9105 67.0122 68.9028C67.2894 68.8338 67.56 68.7284 67.8249 68.5976C67.8751 68.5735 67.9252 68.5481 67.9745 68.5218C68.0211 68.4964 68.0704 68.4778 68.1162 68.4503L105.432 46.0629C105.501 46.4427 105.543 46.8283 105.543 47.2267V83.1532Z" fill="black"/>
</svg>
