<svg width="156" height="42" viewBox="0 0 156 42" fill="none" xmlns="http://www.w3.org/2000/svg">
<path d="M6.23 9.475H23.445V1.5H6.23V9.475ZM6.23 24.545H22.895V17.065H6.23V24.545ZM0.0700001 1.5V40H8.98V1.5H0.0700001ZM120.812 1.5V40H130.382V1.5H120.812ZM134.562 40C138.779 40 142.427 39.2117 145.507 37.635C148.587 36.0583 150.971 33.84 152.657 30.98C154.344 28.0833 155.187 24.6733 155.187 20.75C155.187 16.79 154.344 13.38 152.657 10.52C150.971 7.66 148.587 5.44167 145.507 3.865C142.427 2.28833 138.779 1.5 134.562 1.5H126.972V9.75H134.232C135.699 9.75 137.111 9.93333 138.467 10.3C139.861 10.6667 141.071 11.2717 142.097 12.115C143.161 12.9583 144.004 14.095 144.627 15.525C145.251 16.9183 145.562 18.66 145.562 20.75C145.562 22.84 145.251 24.6 144.627 26.03C144.004 27.4233 143.161 28.5417 142.097 29.385C141.071 30.2283 139.861 30.8333 138.467 31.2C137.111 31.5667 135.699 31.75 134.232 31.75H126.972V40H134.562Z" fill="black"/>
<path d="M38.1154 20.75C38.1154 18.4767 38.5554 16.4783 39.4354 14.755C40.3521 12.995 41.6171 11.62 43.2304 10.63C44.8804 9.64 46.8054 9.145 49.0054 9.145C51.2421 9.145 53.1671 9.64 54.7804 10.63C56.3937 11.62 57.6404 12.995 58.5204 14.755C59.4004 16.4783 59.8404 18.4767 59.8404 20.75C59.8404 23.0233 59.3821 25.04 58.4654 26.8C57.5854 28.5233 56.3204 29.88 54.6704 30.87C53.0571 31.86 51.1687 32.355 49.0054 32.355C46.8054 32.355 44.8804 31.86 43.2304 30.87C41.6171 29.88 40.3521 28.5233 39.4354 26.8C38.5554 25.04 38.1154 23.0233 38.1154 20.75ZM28.2704 20.75C28.2704 23.72 28.7654 26.4517 29.7554 28.945C30.7821 31.4383 32.2121 33.6017 34.0454 35.435C35.9154 37.2683 38.1154 38.6983 40.6454 39.725C43.1754 40.715 45.9621 41.21 49.0054 41.21C52.0121 41.21 54.7804 40.715 57.3104 39.725C59.8404 38.6983 62.0221 37.2683 63.8554 35.435C65.7254 33.6017 67.1554 31.4383 68.1454 28.945C69.1721 26.4517 69.6854 23.72 69.6854 20.75C69.6854 17.78 69.1721 15.0667 68.1454 12.61C67.1187 10.1533 65.6704 8.02667 63.8004 6.23C61.9304 4.43333 59.7304 3.05833 57.2004 2.105C54.7071 1.115 51.9754 0.619999 49.0054 0.619999C46.0721 0.619999 43.3404 1.115 40.8104 2.105C38.2804 3.05833 36.0804 4.43333 34.2104 6.23C32.3404 8.02667 30.8737 10.1533 29.8104 12.61C28.7837 15.0667 28.2704 17.78 28.2704 20.75ZM83.2863 20.75C83.2863 18.4767 83.7263 16.4783 84.6063 14.755C85.523 12.995 86.788 11.62 88.4013 10.63C90.0513 9.64 91.9763 9.145 94.1763 9.145C96.413 9.145 98.338 9.64 99.9513 10.63C101.565 11.62 102.811 12.995 103.691 14.755C104.571 16.4783 105.011 18.4767 105.011 20.75C105.011 23.0233 104.553 25.04 103.636 26.8C102.756 28.5233 101.491 29.88 99.8413 30.87C98.228 31.86 96.3396 32.355 94.1763 32.355C91.9763 32.355 90.0513 31.86 88.4013 30.87C86.788 29.88 85.523 28.5233 84.6063 26.8C83.7263 25.04 83.2863 23.0233 83.2863 20.75ZM73.4413 20.75C73.4413 23.72 73.9363 26.4517 74.9263 28.945C75.953 31.4383 77.383 33.6017 79.2163 35.435C81.0863 37.2683 83.2863 38.6983 85.8163 39.725C88.3463 40.715 91.133 41.21 94.1763 41.21C97.183 41.21 99.9513 40.715 102.481 39.725C105.011 38.6983 107.193 37.2683 109.026 35.435C110.896 33.6017 112.326 31.4383 113.316 28.945C114.343 26.4517 114.856 23.72 114.856 20.75C114.856 17.78 114.343 15.0667 113.316 12.61C112.29 10.1533 110.841 8.02667 108.971 6.23C107.101 4.43333 104.901 3.05833 102.371 2.105C99.878 1.115 97.1463 0.619999 94.1763 0.619999C91.243 0.619999 88.5113 1.115 85.9813 2.105C83.4513 3.05833 81.2513 4.43333 79.3813 6.23C77.5113 8.02667 76.0446 10.1533 74.9813 12.61C73.9546 15.0667 73.4413 17.78 73.4413 20.75Z" fill="#961313"/>
</svg>
