<svg width="135" height="135" viewBox="0 0 135 135" fill="none" xmlns="http://www.w3.org/2000/svg">
<g clip-path="url(#clip0_1_53)">
<path d="M67.5 134.999C104.779 134.999 135 104.778 135 67.4989C135 30.2197 104.779 -0.00110626 67.5 -0.00110626C30.2208 -0.00110626 0 30.2197 0 67.4989C0 104.778 30.2208 134.999 67.5 134.999Z" fill="black"/>
<path d="M95.2061 27.0804H39.7964C32.7814 27.0804 27.09 32.7718 27.09 39.7987V95.2085C27.09 102.223 32.7814 107.915 39.7964 107.915H95.2061C102.221 107.915 107.912 102.223 107.912 95.2085V39.7987C107.912 32.7718 102.221 27.0804 95.2061 27.0804ZM86.6137 36.4296L96.7691 36.4056H96.7932C97.7678 36.3935 98.562 37.1877 98.562 38.1503V48.3418C98.562 49.3165 97.7798 50.0986 96.8052 50.0986L86.6618 50.1347C85.6872 50.1347 84.9051 49.3526 84.9051 48.39L84.869 38.1984C84.8569 37.2238 85.639 36.4417 86.6137 36.4296ZM55.1138 60.5548C55.3785 60.0976 55.6552 59.6404 55.9681 59.2072C58.5551 55.6215 62.7544 53.2752 67.4952 53.2752C72.2481 53.2752 76.4474 55.6215 79.0344 59.2072C79.3472 59.6404 79.624 60.0976 79.8887 60.5669C81.0438 62.6124 81.7297 64.9828 81.7297 67.4976C81.7297 75.3428 75.3404 81.72 67.4952 81.72C59.65 81.72 53.2728 75.3428 53.2728 67.4976C53.2716 64.9828 53.9466 62.6124 55.1138 60.5548ZM100.043 92.2966C100.043 96.5681 96.5658 100.046 92.2942 100.046H42.7082C38.4367 100.046 34.9593 96.5681 34.9593 92.2966V59.2072H47.0279C46.7271 59.9412 46.4624 60.7113 46.2458 61.4813C45.6923 63.3945 45.4035 65.416 45.4035 67.4976C45.4035 79.6865 55.3183 89.6013 67.4952 89.6013C79.6841 89.6013 89.5989 79.6865 89.5989 67.4976C89.5989 65.416 89.2981 63.3945 88.7567 61.4813C88.528 60.7113 88.2754 59.9412 87.9745 59.2072H100.043V92.2966V92.2966Z" fill="white"/>
</g>
<defs>
<clipPath id="clip0_1_53">
<rect width="135" height="135" fill="white"/>
</clipPath>
</defs>
</svg>
